# xmcd CD database file
#
# Track frame offsets:
#	150
#	24102
#	41320
#	51697
#	73585
#	83217
#	100962
#	119272
#	139367
#	163475
#	175807
#	195597
#
# Disc length: 2885 seconds
#
# Revision: 0
# Processed by: cddbd v1.5PL3 Copyright (c) Steve Scherf et al.
# Submitted via: CDex 1.50beta10
#
DISCID=a80b430c
DTITLE=Jesse Thomas - Blues Is A Feeling
DYEAR=2001
DGENRE=Blues
TTITLE0=Blues Is A Feelin'
TTITLE1=Married Woman Blues
TTITLE2=Boogie Everywhere
TTITLE3=Please Believe Me
TTITLE4=She Throwed My Clothes Outdoor
TTITLE5=Rain Sleet Or Snow
TTITLE6=Jesse, John and Jodie Jam
TTITLE7=Stop Crying On My Shoulder
TTITLE8=Sad Old World
TTITLE9=Change Your Attitude
TTITLE10=Santa Claus
TTITLE11=When I Left My Baby
EXTD=YEAR: 2001
EXTT0=
EXTT1=
EXTT2=
EXTT3=
EXTT4=
EXTT5=
EXTT6=
EXTT7=
EXTT8=
EXTT9=
EXTT10=
EXTT11=
PLAYORDER=
